<svg xmlns="http://www.w3.org/2000/svg" fill="none" viewBox="0 0 30 30">
  <path fill="#000" d="M10.39 25.22l2.65-2.77c.188-.2.338-.377.45-.53.12-.16.207-.31.26-.45a1.28 1.28 0 0 0 .08-.44c0-.293-.096-.523-.29-.69-.186-.167-.43-.25-.73-.25-.306 0-.58.08-.82.24-.232.16-.453.413-.66.76l-.93-.79c.28-.473.627-.83 1.04-1.07.42-.247.9-.37 1.44-.37.46 0 .86.09 1.2.27.348.18.614.43.8.75.188.32.28.693.28 1.12 0 .287-.036.547-.11.78a2.298 2.298 0 0 1-.35.7c-.16.227-.382.483-.67.77l-1.93 1.97h-1.71zm0 .78v-.78l1.16-.4h3.76V26h-4.92zm7.768.1c-.486 0-.93-.083-1.33-.25-.4-.173-.733-.42-1-.74l.9-.89c.133.2.323.36.57.48.254.12.53.18.83.18.273 0 .51-.05.71-.15a1.136 1.136 0 0 0 .66-1.07c0-.26-.06-.48-.18-.66a1.095 1.095 0 0 0-.46-.41 1.476 1.476 0 0 0-.65-.14 2.24 2.24 0 0 0-.69.1c-.2.06-.393.16-.58.3l.08-.86c.127-.133.26-.24.4-.32.14-.087.297-.15.47-.19.18-.047.39-.07.63-.07.514 0 .94.107 1.28.32.347.207.61.487.79.84.18.347.27.73.27 1.15 0 .46-.113.87-.34 1.23-.227.36-.543.643-.95.85-.4.2-.87.3-1.41.3zm-1.22-3.25l-.65-.64.32-3.24h1.23l-.36 3.29-.54.59zm-.12-2.7l-.21-1.18h3.86v1.18h-3.65zm7.207 5.95c-.48 0-.913-.107-1.3-.32a2.56 2.56 0 0 1-.91-.88 2.397 2.397 0 0 1-.33-1.24c0-.62.214-1.243.64-1.87l1.95-2.82h1.56l-2.13 2.98-.5.14c.074-.153.16-.287.26-.4.107-.113.244-.2.41-.26.167-.06.377-.09.63-.09.42 0 .8.1 1.14.3.34.193.614.463.82.81.207.34.31.733.31 1.18 0 .46-.113.877-.34 1.25-.226.373-.533.67-.92.89-.386.22-.816.33-1.29.33zm0-1.22c.234 0 .44-.053.62-.16.18-.113.324-.263.43-.45.107-.193.16-.41.16-.65 0-.24-.053-.453-.16-.64a1.165 1.165 0 0 0-.43-.45 1.192 1.192 0 0 0-.62-.16 1.19 1.19 0 0 0-.63.17c-.18.107-.323.253-.43.44-.1.187-.15.4-.15.64s.05.457.15.65c.107.187.25.337.43.45.187.107.397.16.63.16z"/>
  <rect width="28" height="28" x="1" y="1" stroke="#000" stroke-width="2" rx="4"/>
  <path fill="#000" d="M0 0h10v10H0z"/>
</svg>
