<?xml version="1.0" standalone="no"?>
<!DOCTYPE svg PUBLIC "-//W3C//DTD SVG 20010904//EN"
 "http://www.w3.org/TR/2001/REC-SVG-20010904/DTD/svg10.dtd">
<svg version="1.0" xmlns="http://www.w3.org/2000/svg"
 width="700.000000pt" height="700.000000pt" viewBox="0 0 700.000000 700.000000"
 preserveAspectRatio="xMidYMid meet">
<metadata>
Created by potrace 1.14, written by Peter Selinger 2001-2017
</metadata>
<g transform="translate(0.000000,700.000000) scale(0.100000,-0.100000)"
fill="#000000" stroke="none">
<path d="M3 4068 l3 -2933 21 -90 c130 -539 506 -907 1043 -1022 81 -17 202
-18 2425 -18 1865 0 2354 3 2410 13 176 32 366 109 518 208 91 60 289 257 349
349 97 148 167 316 205 495 17 81 18 202 18 2430 0 2223 -1 2349 -18 2429 -46
212 -127 395 -244 551 -56 75 -201 215 -282 274 -137 98 -327 181 -511 223
-69 16 -291 17 -3008 20 l-2932 3 3 -2932z m5747 2051 c193 -30 339 -176 369
-369 15 -90 15 -4410 0 -4500 -30 -193 -176 -339 -369 -369 -90 -15 -4410 -15
-4500 0 -195 31 -340 178 -370 374 -7 47 -10 495 -8 1375 l3 1305 1093 3 1092
2 0 1088 c0 599 3 1092 7 1095 11 12 2611 8 2683 -4z"/>
</g>
</svg>
