<?xml version="1.0" standalone="no"?>
<!DOCTYPE svg PUBLIC "-//W3C//DTD SVG 20010904//EN"
 "http://www.w3.org/TR/2001/REC-SVG-20010904/DTD/svg10.dtd">
<svg version="1.0" xmlns="http://www.w3.org/2000/svg"
 width="700.000000pt" height="700.000000pt" viewBox="0 0 700.000000 700.000000"
 preserveAspectRatio="xMidYMid meet">
<metadata>
Created by potrace 1.14, written by Peter Selinger 2001-2017
</metadata>
<g transform="translate(0.000000,700.000000) scale(0.100000,-0.100000)"
fill="#000000" stroke="none">
<path d="M3 4068 c1 -1613 6 -2944 10 -2958 4 -14 10 -40 13 -58 16 -94 75
-257 130 -360 200 -367 551 -612 979 -681 74 -12 4713 -9 4765 3 365 84 589
214 796 461 160 190 245 384 294 670 5 28 8 1103 7 2390 l-3 2340 -22 89
c-130 525 -495 886 -1022 1012 -71 17 -229 18 -3013 21 l-2937 3 3 -2932z
m5808 2039 c67 -20 167 -85 208 -134 48 -58 81 -128 94 -200 10 -53 13 -553
12 -2298 -1 -2496 5 -2279 -74 -2402 -58 -90 -164 -163 -271 -189 -19 -4
-1041 -8 -2270 -9 -2463 -1 -2305 -5 -2415 60 -99 57 -191 183 -211 285 -4 19
-7 638 -8 1376 l-1 1341 1092 -1 c1086 -1 1093 -1 1094 19 0 11 1 504 1 1095
l1 1075 1346 -1 c1232 0 1351 -2 1402 -17z"/>
</g>
</svg>
